<?xml version="1.0" encoding="UTF-8"?>
<svg version="1.1" xmlns="http://www.w3.org/2000/svg" width="407" height="101">
<path d="M0 0 C0.928125 0.8971875 0.928125 0.8971875 1.875 1.8125 C2.205 -0.1675 2.535 -2.1475 2.875 -4.1875 C9.475 -4.1875 16.075 -4.1875 22.875 -4.1875 C22.875 19.5725 22.875 43.3325 22.875 67.8125 C16.275 67.8125 9.675 67.8125 2.875 67.8125 C2.545 65.8325 2.215 63.8525 1.875 61.8125 C0.575625 62.988125 0.575625 62.988125 -0.75 64.1875 C-7.11349462 69.94494751 -15.57258988 69.38110186 -23.6171875 69.1953125 C-31.03199509 68.76497502 -36.55700764 65.9612283 -42.1875 61.25 C-43.86171011 59.14373567 -45.11306516 57.29634007 -46.125 54.8125 C-46.785 54.8125 -47.445 54.8125 -48.125 54.8125 C-54.08046547 42.96537762 -55.69432839 29.47820355 -51.5625 16.6875 C-47.07631809 6.60531417 -40.35685797 0.08941269 -30.09375 -3.99609375 C-20.14081232 -6.95342155 -8.57019494 -5.99913645 0 0 Z M-32.125 22.8125 C-34.96884005 27.57893614 -34.85665124 32.41470564 -34.125 37.8125 C-31.62494465 44.04197677 -27.41020179 48.38415139 -21.25 51.0625 C-14.25933266 52.74026016 -9.60966043 51.71443841 -3.3671875 48.375 C0.61818255 45.59773864 1.89305363 42.3491948 3.625 37.875 C4.59150489 29.90133462 3.5700002 24.48856126 -1.125 17.8125 C-5.10847534 13.78396272 -9.08445428 12.50363581 -14.6875 12.25 C-22.84731698 12.66758399 -27.41753943 16.35655408 -32.125 22.8125 Z " fill="#E9E9E9" transform="translate(252.125,32.1875)"/>
<path d="M0 0 C4.47243946 0.7986499 5.68960255 2.0979512 8.5 5.625 C9.05705004 8.32611246 9.36275228 10.59929217 9.5 13.3125 C10.22979058 21.52077282 12.03632288 28.74805798 18.3125 34.5625 C21.98602517 36.93948688 25.34983654 38.26546369 29.5 39.625 C29.5 40.285 29.5 40.945 29.5 41.625 C30.60859375 41.57859375 31.7171875 41.5321875 32.859375 41.484375 C34.32288968 41.44684898 35.78643356 41.41044971 37.25 41.375 C37.97960937 41.34148438 38.70921875 41.30796875 39.4609375 41.2734375 C43.00240354 41.20904721 45.06065367 41.30420745 47.9609375 43.421875 C50.10044797 46.48452451 50.36776436 48.92240221 50.5 52.625 C49.39791992 56.02308026 48.57902124 56.57231917 45.5 58.625 C42.94794158 58.98630265 40.43813777 59.26859132 37.875 59.5 C30.05135117 60.35194157 23.94243701 61.8710504 17.6875 66.875 C15.4259982 69.71803083 13.89824584 72.46883675 12.39453125 75.7578125 C11.5 77.625 11.5 77.625 9.5 80.625 C9.37084859 83.39906854 9.37084859 83.39906854 9.5625 86.4375 C9.6505973 91.28872454 9.37422617 94.53475506 6.5 98.625 C3.31496713 100.21751643 -0.0332405 100.01629761 -3.5 99.625 C-6.73613354 97.88246655 -7.32395315 97.15314056 -8.5 93.625 C-8.6274578 91.6055019 -8.72815968 89.58425784 -8.8125 87.5625 C-9.44341686 79.22140803 -11.0109384 72.55883695 -17.25 66.6875 C-21.08995627 63.62708372 -24.82156467 62.0452393 -29.5 60.625 C-29.5 59.965 -29.5 59.305 -29.5 58.625 C-30.06847656 58.78484375 -30.63695313 58.9446875 -31.22265625 59.109375 C-36.17449463 60.23054595 -40.88983712 60.39653638 -45.5 58.1875 C-47.5 56.625 -47.5 56.625 -48.5 55.625 C-48.73828125 53.2265625 -48.73828125 53.2265625 -48.8125 50.25 C-48.84988281 49.27289063 -48.88726562 48.29578125 -48.92578125 47.2890625 C-48.5 44.625 -48.5 44.625 -46.96484375 42.8359375 C-43.64069902 41.20283945 -40.38488612 40.93297719 -36.75 40.625 C-25.60259914 39.4343852 -25.60259914 39.4343852 -16.75 32.9375 C-15.6336459 31.52549048 -14.54824393 30.08828467 -13.5 28.625 C-12.86191406 27.74714844 -12.86191406 27.74714844 -12.2109375 26.8515625 C-8.84013451 21.2982252 -9.05995929 15.42485271 -9.06640625 9.11328125 C-8.16857549 3.58388213 -5.46973637 0.97673864 0 0 Z M-1.5 6.625 C-1.83 8.275 -2.16 9.925 -2.5 11.625 C-1.18 11.955 0.14 12.285 1.5 12.625 C2.16 11.305 2.82 9.985 3.5 8.625 C2.84 7.965 2.18 7.305 1.5 6.625 C0.51 6.625 -0.48 6.625 -1.5 6.625 Z M-8.5 20.625 C-7.5 22.625 -7.5 22.625 -7.5 22.625 Z M-0.5 40.625 C-3.47675459 43.71827895 -3.47675459 43.71827895 -4.5 47.625 C-6.48 48.615 -6.48 48.615 -8.5 49.625 C-5.29239749 53.43135497 -2.09253891 57.17063567 1.5 60.625 C2.0775 59.5525 2.655 58.48 3.25 57.375 C4.98375824 54.3223471 6.8634908 51.97902607 9.5 49.625 C8.94570313 49.14289062 8.39140625 48.66078125 7.8203125 48.1640625 C7.09585938 47.53242187 6.37140625 46.90078125 5.625 46.25 C4.90570313 45.62351562 4.18640625 44.99703125 3.4453125 44.3515625 C2.0923402 43.15073166 0.7791655 41.9041655 -0.5 40.625 Z M-42.5 47.625 C-42.83 48.945 -43.16 50.265 -43.5 51.625 C-42.015 52.615 -42.015 52.615 -40.5 53.625 C-39.84 53.295 -39.18 52.965 -38.5 52.625 C-38.83 50.975 -39.16 49.325 -39.5 47.625 C-40.49 47.625 -41.48 47.625 -42.5 47.625 Z M39.5 47.625 C39.17 48.945 38.84 50.265 38.5 51.625 C40.975 52.12 40.975 52.12 43.5 52.625 C43.83 51.635 44.16 50.645 44.5 49.625 C44.17 48.965 43.84 48.305 43.5 47.625 C42.18 47.625 40.86 47.625 39.5 47.625 Z M-1.5 88.625 C-1.83 89.945 -2.16 91.265 -2.5 92.625 C-0.025 93.12 -0.025 93.12 2.5 93.625 C2.83 92.305 3.16 90.985 3.5 89.625 C1.85 89.295 0.2 88.965 -1.5 88.625 Z " fill="#F8F8F8" transform="translate(48.5,0.375)"/>
<path d="M0 0 C2.02032503 1.46247409 3.90667815 2.99670517 5.78125 4.640625 C7.1425 5.81625 7.1425 5.81625 8.53125 7.015625 C17.43003553 17.39754145 15.78125 26.30733858 15.78125 40.640625 C-1.04875 40.640625 -17.87875 40.640625 -35.21875 40.640625 C-32.19480411 46.68851678 -30.54621947 49.01746916 -24.65625 51.890625 C-16.40424598 53.69106224 -8.83627138 53.30832048 -1.21875 49.640625 C-0.55875 48.980625 0.10125 48.320625 0.78125 47.640625 C3.59323651 47.82073157 4.66339437 48.5273207 6.703125 50.48828125 C7.30640625 51.21917969 7.9096875 51.95007813 8.53125 52.703125 C9.14484375 53.43660156 9.7584375 54.17007813 10.390625 54.92578125 C10.84953125 55.49167969 11.3084375 56.05757812 11.78125 56.640625 C6.56383589 63.64294394 0.39754629 67.78111452 -8.21875 69.640625 C-21.3874514 70.79242962 -32.95380908 70.26217817 -43.53125 61.640625 C-51.75059442 53.73539566 -55.29081598 44.22744302 -55.53125 33.015625 C-55.47379385 26.14961508 -54.19169026 20.80165251 -51.21875 14.640625 C-50.6928125 13.54621094 -50.6928125 13.54621094 -50.15625 12.4296875 C-45.1510479 3.35775869 -36.9731805 -1.03140644 -27.37109375 -3.9140625 C-18.25177717 -5.80081765 -8.00909795 -4.90698255 0 0 Z M-33.21875 19.640625 C-35.54959721 22.87724394 -35.54959721 22.87724394 -36.21875 26.640625 C-24.66875 26.640625 -13.11875 26.640625 -1.21875 26.640625 C-3.25365957 20.53589629 -4.60739625 17.44370259 -9.84375 13.828125 C-19.0973858 10.57221611 -26.75882571 12.33071068 -33.21875 19.640625 Z " fill="#E9E9E9" transform="translate(391.21875,31.359375)"/>
<path d="M0 0 C0 5.28 0 10.56 0 16 C-3.25520833 15.86979167 -6.51041667 15.73958333 -9.765625 15.609375 C-13.02970403 15.74743751 -13.02970403 15.74743751 -15.359375 17.640625 C-17.50004049 20.35990327 -17.50004049 20.35990327 -18 26 C-12.06 26 -6.12 26 0 26 C0 31.28 0 36.56 0 42 C-5.94 42 -11.88 42 -18 42 C-18 60.48 -18 78.96 -18 98 C-24.6 98 -31.2 98 -38 98 C-38 79.52 -38 61.04 -38 42 C-40.97 42 -43.94 42 -47 42 C-47 36.72 -47 31.44 -47 26 C-44.03 26 -41.06 26 -38 26 C-38.0825 24.55625 -38.165 23.1125 -38.25 21.625 C-38.22204418 15.0460626 -36.69851324 9.2328723 -32.421875 4.109375 C-23.62030774 -4.05784507 -10.79223545 -3.59741182 0 0 Z " fill="#E9E9E9" transform="translate(162,2)"/>
<path d="M0 0 C0.88042969 -0.00257812 1.76085937 -0.00515625 2.66796875 -0.0078125 C4.8125 0.125 4.8125 0.125 5.8125 1.125 C5.89881874 2.46767413 5.91956473 3.81474322 5.91015625 5.16015625 C5.90693359 5.96904297 5.90371094 6.77792969 5.90039062 7.61132812 C5.88782227 8.8865332 5.88782227 8.8865332 5.875 10.1875 C5.87048828 11.04150391 5.86597656 11.89550781 5.86132812 12.77539062 C5.84950373 14.89195663 5.83156769 17.00848685 5.8125 19.125 C5.11125 19.15078125 4.41 19.1765625 3.6875 19.203125 C-4.02732405 19.66433731 -9.91997251 20.85747251 -15.5 26.4375 C-19.43082062 32.6976958 -20.63909312 37.62695249 -20.69921875 44.90234375 C-20.71716995 45.71369278 -20.73512115 46.52504181 -20.75361633 47.36097717 C-20.80738463 49.92810008 -20.84150616 52.4950407 -20.875 55.0625 C-20.90820276 56.81317623 -20.94269513 58.5638285 -20.97851562 60.31445312 C-21.06549751 64.58465676 -21.12584875 68.85405664 -21.1875 73.125 C-27.7875 73.125 -34.3875 73.125 -41.1875 73.125 C-41.1875 49.365 -41.1875 25.605 -41.1875 1.125 C-34.5875 1.125 -27.9875 1.125 -21.1875 1.125 C-20.8575 4.755 -20.5275 8.385 -20.1875 12.125 C-19.300625 10.866875 -18.41375 9.60875 -17.5 8.3125 C-12.69330814 1.91111743 -7.85960266 -0.02321891 0 0 Z " fill="#E9E9E9" transform="translate(328.1875,26.875)"/>
<path d="M0 0 C6.6 0 13.2 0 20 0 C20 32.01 20 64.02 20 97 C13.4 97 6.8 97 0 97 C0 64.99 0 32.98 0 0 Z " fill="#E9E9E9" transform="translate(170,3)"/>
</svg>
